<?xml version="1.0" encoding="UTF-8" standalone="no"?>
<svg width="14px" height="11px" viewBox="0 0 14 11" version="1.1" xmlns="http://www.w3.org/2000/svg" xmlns:xlink="http://www.w3.org/1999/xlink" xmlns:sketch="http://www.bohemiancoding.com/sketch/ns">
    <!-- Generator: sketchtool 3.4.4 (395) - http://www.bohemiancoding.com/sketch -->
    <title>stroke-checkmark-1 copy 15</title>
    <desc>Created with sketchtool.</desc>
    <defs></defs>
    <g id="Page-1" stroke="none" stroke-width="1" fill="none" fill-rule="evenodd" sketch:type="MSPage">
        <g id="VAR-A-" sketch:type="MSArtboardGroup" transform="translate(-607.000000, -732.000000)" fill="#7ED321">
            <g id="Plans" sketch:type="MSLayerGroup" transform="translate(250.000000, 319.000000)">
                <g id="Starter-Copy" transform="translate(321.000000, 0.000000)" sketch:type="MSShapeGroup">
                    <path d="M48.852375,413.323 L48.851875,413.323 C48.663875,413.118 48.384875,413 48.086375,413 C47.787375,413 47.507375,413.118 47.318375,413.3235 L40.711375,420.557 L37.815875,417.387 C37.617375,417.171 37.336875,417.047 37.044875,417.047 C36.753375,417.0475 36.473375,417.1715 36.276375,417.387 C35.907875,417.7905 35.907875,418.422 36.276375,418.825 L39.939875,422.8355 L40.013375,422.908 C40.204375,423.0795 40.450375,423.1735 40.706875,423.1735 C40.997375,423.1735 41.276375,423.05 41.472875,422.835 L48.853375,414.7575 L48.865875,414.7425 L48.865875,414.742 C49.218875,414.3405 49.214375,413.7205 48.852375,413.323" id="stroke-checkmark-1-copy-15"></path>
                </g>
            </g>
        </g>
    </g>
</svg>